<?xml version="1.0" encoding="UTF-8" standalone="no"?>
<!DOCTYPE svg PUBLIC "-//W3C//DTD SVG 1.1//EN" "http://www.w3.org/Graphics/SVG/1.1/DTD/svg11.dtd">
<svg width="100%" height="100%" viewBox="0 0 100 100" version="1.1" xmlns="http://www.w3.org/2000/svg" xmlns:xlink="http://www.w3.org/1999/xlink" xml:space="preserve" xmlns:serif="http://www.serif.com/" style="fill-rule:evenodd;clip-rule:evenodd;stroke-linecap:round;stroke-linejoin:round;stroke-miterlimit:1.5;">
    <g transform="matrix(0.666667,0,0,0.666667,18,3.55271e-15)">
        <path d="M48,12L56.66,26.25L39.34,26.25L48,12Z" style="fill:white;stroke:black;stroke-width:1.5px;"/>
    </g>
    <g transform="matrix(-0.32254,0.32254,-0.32254,-0.32254,61.1671,30.279)">
        <path d="M48,12L56.66,26.25L39.34,26.25L48,12Z" style="fill:white;stroke:black;stroke-width:2.19px;"/>
    </g>
    <g transform="matrix(-0.666667,-8.16431e-17,8.16431e-17,-0.666667,82,100)">
        <path d="M48,12L56.66,26.25L39.34,26.25L48,12Z" style="fill:white;stroke:black;stroke-width:1.5px;"/>
    </g>
    <g transform="matrix(0.345092,-0.345092,0.345092,0.345092,37.1584,70.363)">
        <path d="M48,12L56.66,26.25L39.34,26.25L48,12Z" style="fill:white;stroke:black;stroke-width:2.05px;"/>
    </g>
    <g transform="matrix(4.08216e-17,-0.666667,0.666667,4.08216e-17,5.32907e-15,82)">
        <path d="M48,12L56.66,26.25L39.34,26.25L48,12Z" style="fill:white;stroke:black;stroke-width:1.5px;"/>
    </g>
    <g transform="matrix(0.345092,0.345092,-0.345092,0.345092,29.6056,37.2341)">
        <path d="M48,12L56.66,26.25L39.34,26.25L48,12Z" style="fill:white;stroke:black;stroke-width:2.05px;"/>
    </g>
    <g transform="matrix(-1.22465e-16,0.666667,-0.666667,-1.22465e-16,100,18)">
        <path d="M48,12L56.66,26.25L39.34,26.25L48,12Z" style="fill:white;stroke:black;stroke-width:1.5px;"/>
    </g>
    <g transform="matrix(-0.345092,-0.345092,0.345092,-0.345092,70.2872,62.8102)">
        <path d="M48,12L56.66,26.25L39.34,26.25L48,12Z" style="fill:white;stroke:black;stroke-width:2.05px;"/>
    </g>
</svg>
