<?xml version="1.0" encoding="UTF-8" standalone="no"?>
<!DOCTYPE svg PUBLIC "-//W3C//DTD SVG 1.1//EN" "http://www.w3.org/Graphics/SVG/1.1/DTD/svg11.dtd">
<svg width="100%" height="100%" viewBox="0 0 100 100" version="1.1" xmlns="http://www.w3.org/2000/svg" xmlns:xlink="http://www.w3.org/1999/xlink" xml:space="preserve" xmlns:serif="http://www.serif.com/" style="fill-rule:evenodd;clip-rule:evenodd;stroke-linecap:round;stroke-linejoin:round;stroke-miterlimit:1.5;">
    <g transform="matrix(0.666667,0,0,0.666667,18,3.55271e-15)">
        <path d="M48,12L56.66,26.25L39.34,26.25L48,12Z" style="fill:white;stroke:black;stroke-width:1.5px;"/>
    </g>
    <g transform="matrix(-0.45614,-5.58611e-17,5.58611e-17,-0.45614,71.8947,43.9737)">
        <path d="M48,12L56.66,26.25L39.34,26.25L48,12Z" style="fill:white;stroke:black;stroke-width:2.19px;"/>
    </g>
    <g transform="matrix(-0.666667,-8.16431e-17,8.16431e-17,-0.666667,82,100)">
        <path d="M48,12L56.66,26.25L39.34,26.25L48,12Z" style="fill:white;stroke:black;stroke-width:1.5px;"/>
    </g>
    <g transform="matrix(0.488034,1.19534e-16,-1.19534e-16,0.488034,26.5744,55.3406)">
        <path d="M48,12L56.66,26.25L39.34,26.25L48,12Z" style="fill:white;stroke:black;stroke-width:2.05px;"/>
    </g>
    <g transform="matrix(4.08216e-17,-0.666667,0.666667,4.08216e-17,5.32907e-15,82)">
        <path d="M48,12L56.66,26.25L39.34,26.25L48,12Z" style="fill:white;stroke:black;stroke-width:1.5px;"/>
    </g>
    <g transform="matrix(-8.96504e-17,0.488034,-0.488034,-8.96504e-17,44.6594,26.5744)">
        <path d="M48,12L56.66,26.25L39.34,26.25L48,12Z" style="fill:white;stroke:black;stroke-width:2.05px;"/>
    </g>
    <g transform="matrix(-1.22465e-16,0.666667,-0.666667,-1.22465e-16,100,18)">
        <path d="M48,12L56.66,26.25L39.34,26.25L48,12Z" style="fill:white;stroke:black;stroke-width:1.5px;"/>
    </g>
    <g transform="matrix(1.49417e-16,-0.488034,0.488034,1.49417e-16,55.3406,73.4256)">
        <path d="M48,12L56.66,26.25L39.34,26.25L48,12Z" style="fill:white;stroke:black;stroke-width:2.05px;"/>
    </g>
</svg>
